<?xml version="1.0" encoding="UTF-8"?> <svg xmlns="http://www.w3.org/2000/svg" width="207.162" height="70.818" viewBox="0 0 207.162 70.818"><g id="Group_310" data-name="Group 310" transform="translate(-69.178 -56.436)"><path id="Path_61" data-name="Path 61" d="M123.874,60.805a20.2,20.2,0,0,1,.9,3.882,24.62,24.62,0,0,1,.214,3.144,17.424,17.424,0,0,1-7.669,14.834c-5.988,4.31-12.139,8.631-18.073,12.813q-3.595,2.519-7.2,5.059a8.968,8.968,0,0,1-1.315-4.716c0-.182.01-.353.021-.535a9.442,9.442,0,0,1,4.309-7.636L99.428,84.6c3.967-2.759,8.073-5.626,12.1-8.471a10.818,10.818,0,1,0-16.973-9.38c-.011.16-.011.332-.011.492A8.825,8.825,0,0,0,95.856,72c.994,1.625,2.064,3.23,3.09,4.791.438.664.877,1.316,1.305,1.979l1.946,2.374L95.116,86.13l-1.946-2.385c-4-4.888-7.475-9.85-7.475-16.106,0-.546.021-1.091.074-1.637a22.5,22.5,0,0,1,1.132-5.25,36.161,36.161,0,0,0,1.632,63.126A11.356,11.356,0,0,1,91.7,114.55l-.009-.007a35.715,35.715,0,0,1,3.9-2.865,10.345,10.345,0,0,0-1.065,4.492,11.2,11.2,0,0,0,1.317,5.395,10.421,10.421,0,0,0,6.065,5.152,10.716,10.716,0,0,0,11.457-3.085,10.879,10.879,0,0,0,2.821-7.031,10.327,10.327,0,0,0-1.245-4.949,31.377,31.377,0,0,0-1.727-2.8c-.225-.358-.463-.7-.7-1.05-.351-.513-.689-1.012-1.015-1.525-.3-.436-.6-.871-.914-1.32l-1.87-2.437,4.382-3.007,2.883-1.979s1.793,2.487,1.807,2.487c.313.448.626.884.927,1.333,2.081,2.961,4.048,5.742,5.2,9.049a18.1,18.1,0,0,1,1.017,6.181,19.367,19.367,0,0,1-1.179,6.4,36.163,36.163,0,0,0,.119-62.177Zm-3.838,27.86a9.571,9.571,0,0,1-4.331,7.422l-21.38,14.336a19.677,19.677,0,0,1-.15-2.407c0-.6.022-1.208.076-1.818.523-5.679,2.725-7.461,7.1-10.627,5.572-4.032,3.1-2.33,8.633-6.223q3.45-2.423,6.9-4.866c.555-.385,1.1-.77,1.679-1.166l.139-.1a7.98,7.98,0,0,1,1.38,4.578A7.872,7.872,0,0,1,120.036,88.666Z" transform="translate(0 0)" fill="#fff"></path><rect id="Rectangle_123" data-name="Rectangle 123" width="2.029" height="1.566" transform="translate(158.928 112.516)" fill="#fff"></rect><rect id="Rectangle_124" data-name="Rectangle 124" width="2.019" height="1.566" transform="translate(162.073 112.516)" fill="#fff"></rect><rect id="Rectangle_125" data-name="Rectangle 125" width="2.02" height="1.566" transform="translate(177.458 112.516)" fill="#fff"></rect><path id="Path_62" data-name="Path 62" d="M243.994,155.723a.981.981,0,0,1-.774,1.1h-5.3v-3.787a3.125,3.125,0,0,0-.286-1.526,1.259,1.259,0,0,0-.948-.589,3.758,3.758,0,0,0-.56-.079q-.343-.026-.794-.027H224.751v6.008H218.31v-6h-5.927q-.482,0-.82.028a3.392,3.392,0,0,0-.549.079,1.23,1.23,0,0,0-.927.593,3.2,3.2,0,0,0-.281,1.521v3.448a4.9,4.9,0,0,0,.074.914,1.946,1.946,0,0,0,.228.631,1.193,1.193,0,0,0,.395.406,1.793,1.793,0,0,0,.572.221l0-.006a9.539,9.539,0,0,0,1.306.064h31.031a7.02,7.02,0,0,0,1.482-.127,1.23,1.23,0,0,0,.839-.624,3.319,3.319,0,0,0,.265-1.5v-5.646h-2.008Zm-27.725,1.119h-2.977a4.081,4.081,0,0,1-.839-.067.653.653,0,0,1-.456-.308.646.646,0,0,1-.147-.322,3.019,3.019,0,0,1-.022-.4V153.82a4.321,4.321,0,0,1,.033-.622.543.543,0,0,1,.187-.36.691.691,0,0,1,.4-.125c.156-.008.364-.012.625-.012h3.193Zm19.634-.011-9.121-.011v-4.1h7.645a3.333,3.333,0,0,1,.543.038,1.1,1.1,0,0,1,.4.148,1.292,1.292,0,0,1,.534,1.148Z" transform="translate(-52.814 -35.443)" fill="#fff"></path><rect id="Rectangle_126" data-name="Rectangle 126" width="2.019" height="1.565" transform="translate(189.883 124.705)" fill="#fff"></rect><rect id="Rectangle_127" data-name="Rectangle 127" width="2.029" height="1.566" transform="translate(202.557 112.516)" fill="#fff"></rect><rect id="Rectangle_128" data-name="Rectangle 128" width="2.02" height="1.566" transform="translate(205.7 112.516)" fill="#fff"></rect><path id="Path_63" data-name="Path 63" d="M289.367,154.149a.98.98,0,0,1-.774,1.1H285.1v-3.778a2.989,2.989,0,0,0-.3-1.522,1.328,1.328,0,0,0-.985-.591,4.552,4.552,0,0,0-.562-.079q-.321-.028-.729-.027h-3.339c-.315,0-.583.009-.81.027a4.116,4.116,0,0,0-.57.079,1.22,1.22,0,0,0-.916.6,3.221,3.221,0,0,0-.281,1.516v3.778l-3.384,0a.977.977,0,0,1-.743-1.095v-7.525h-2.008V154.9a3.338,3.338,0,0,0,.26,1.491,1.262,1.262,0,0,0,.854.634,6.669,6.669,0,0,0,1.461.128h15.741a6.739,6.739,0,0,0,1.47-.127,1.261,1.261,0,0,0,.846-.634,3.341,3.341,0,0,0,.261-1.491v-8.271h-2Zm-6.289.021a2.155,2.155,0,0,1-.022.35,1.092,1.092,0,0,1-.069.242.861.861,0,0,1-.8.485l-2.826,0a1.59,1.59,0,0,1-.37-.114.57.57,0,0,1-.239-.209.771.771,0,0,1-.1-.314,3.358,3.358,0,0,1-.022-.438v-1.923a1.217,1.217,0,0,1,.235-.791.968.968,0,0,1,.716-.328h0l2.775.005a1.1,1.1,0,0,1,.538.4,1.25,1.25,0,0,1,.185.71Z" transform="translate(-75.596 -33.87)" fill="#fff"></path><rect id="Rectangle_129" data-name="Rectangle 129" width="2.031" height="10.523" transform="translate(217.822 112.755)" fill="#fff"></rect><rect id="Rectangle_130" data-name="Rectangle 130" width="2.019" height="1.565" transform="translate(227.699 112.755)" fill="#fff"></rect><path id="Path_64" data-name="Path 64" d="M321.99,160.224a1.712,1.712,0,0,1-.121.726.6.6,0,0,1-.45.337,2.344,2.344,0,0,1-.332.039q-.235.018-.563.017h-.273v1.868h1.2c.315,0,.588-.01.821-.027s.411-.038.576-.065v0a1.611,1.611,0,0,0,.53-.22,1.109,1.109,0,0,0,.352-.394,1.985,1.985,0,0,0,.207-.618,4.939,4.939,0,0,0,.071-.894v-8.81H321.99Z" transform="translate(-94.292 -35.957)" fill="#fff"></path><rect id="Rectangle_131" data-name="Rectangle 131" width="2.019" height="1.565" transform="translate(259.855 124.705)" fill="#fff"></rect><path id="Path_65" data-name="Path 65" d="M367.733,154.149a.98.98,0,0,1-.772,1.1h-3.4l-.9-3.651a3.835,3.835,0,0,0-.682-1.614,1.875,1.875,0,0,0-1.169-.637,4.316,4.316,0,0,0-.579-.079c-.224-.017-.487-.027-.786-.027h-4.858v1.911h4.64a3.185,3.185,0,0,1,.516.039,1.208,1.208,0,0,1,.4.136,1.505,1.505,0,0,1,.445.422,1.727,1.727,0,0,1,.259.612s.1.4.157.64l.571,2.247H351.106V151.46a3.083,3.083,0,0,0-.291-1.526,1.265,1.265,0,0,0-.932-.589,3.9,3.9,0,0,0-.565-.079q-.34-.026-.789-.027H338.389v6.008l-6.909,0a.976.976,0,0,1-.743-1.095v-7.525h-2.009V154.9a3.345,3.345,0,0,0,.261,1.491,1.263,1.263,0,0,0,.854.634,6.674,6.674,0,0,0,1.462.128h35.85a6.757,6.757,0,0,0,1.471-.127,1.239,1.239,0,0,0,.844-.634,3.317,3.317,0,0,0,.262-1.491v-8.271h-2Zm-24.05.163c0,.782-.449.945-.827.945h-1.678a.72.72,0,0,1-.575-.288,1.1,1.1,0,0,1-.183-.658l-.011-3.162h3.275Zm5.4.945h-3.319v-4.107h1.853a3.3,3.3,0,0,1,.543.039,1.1,1.1,0,0,1,.4.148,1.3,1.3,0,0,1,.523,1.148Z" transform="translate(-97.475 -33.87)" fill="#fff"></path><rect id="Rectangle_132" data-name="Rectangle 132" width="2.029" height="10.523" transform="translate(274.311 112.755)" fill="#fff"></rect><g id="Group_308" data-name="Group 308" transform="translate(156.949 56.437)"><path id="Path_66" data-name="Path 66" d="M215.083,73.149h8.772l1.3,3.9h4.006l-6.865-20.328H216.5l-6.762,20.328h4.081Zm4.364-13.433L222.961,70.3h-6.968Z" transform="translate(-209.736 -56.544)" fill="#fff"></path><path id="Path_67" data-name="Path 67" d="M257.039,73.6h-9.532V56.723h-3.859V77.051h13.39Z" transform="translate(-222.472 -56.544)" fill="#fff"></path><path id="Path_68" data-name="Path 68" d="M276.242,77.122q5.748,0,7.41-1.273t1.661-5.682l-.061-4.036H276.3v2.844h5.108l-.015.834q0,2.606-.857,3.306t-4.013.7q-3.247,0-4.139-.826t-.895-3.85l-.029-2.606.016-2.04q0-3.084.9-3.918t4.251-.833c2.058,0,3.339.161,3.852.484s.8,1.148.87,2.479h3.9q0-3.96-1.58-5.115t-7-1.154a16.288,16.288,0,0,0-5.868.744,4.915,4.915,0,0,0-2.577,2.889q-.684,1.756-.685,8.429,0,5.228,1.714,6.924T276.242,77.122Z" transform="translate(-231.446 -56.437)" fill="#fff"></path><rect id="Rectangle_133" data-name="Rectangle 133" width="3.857" height="20.329" transform="translate(56.576 0.179)" fill="#fff"></rect><path id="Path_69" data-name="Path 69" d="M316.142,68.264h9.532v8.787h3.858V56.723h-3.858v8.3h-9.532v-8.3h-3.857V77.051h3.857Z" transform="translate(-248.248 -56.544)" fill="#fff"></path><path id="Path_70" data-name="Path 70" d="M348.063,73.149h8.772l1.3,3.9h4.006l-6.866-20.328h-5.793l-6.76,20.328H346.8Zm4.364-13.433L355.943,70.3h-6.971Z" transform="translate(-259.678 -56.544)" fill="#fff"></path><path id="Path_71" data-name="Path 71" d="M391.089,73.8H379.726v-.119l11.229-13.731V56.723H375.333v3.247H385.98v.119L374.841,73.76v3.292h16.248Z" transform="translate(-271.742 -56.544)" fill="#fff"></path></g><g id="Group_309" data-name="Group 309" transform="translate(156.949 84.982)"><path id="Path_72" data-name="Path 72" d="M213.372,113.3h8.983v8.281h3.635V102.42h-3.635v7.818h-8.983V102.42h-3.636v19.159h3.636Z" transform="translate(-209.736 -102.251)" fill="#fff"></path><path id="Path_73" data-name="Path 73" d="M247.979,121.646q5.8,0,7.306-1.712t1.508-8.3q0-6.021-1.5-7.754t-6.724-1.733q-5.868,0-7.368,1.755t-1.5,8.6q0,5.756,1.531,7.447T247.979,121.646Zm-3.974-15.439q.62-.941,4.282-.941,3.539,0,4.176.877t.639,5.692q0,4.8-.674,5.747t-4.057.947q-3.539,0-4.259-.842t-.724-4.969Q243.389,107.147,244.005,106.207Z" transform="translate(-220.988 -102.15)" fill="#fff"></path><path id="Path_74" data-name="Path 74" d="M283.627,118.323h-8.981v-15.9H271.01v19.159h12.618Z" transform="translate(-232.748 -102.251)" fill="#fff"></path><path id="Path_75" data-name="Path 75" d="M312.281,119.537q1.293-2.043,1.291-9.215,0-4.393-1.607-6.148t-5.621-1.754h-9.418v19.159h9.532Q310.99,121.579,312.281,119.537Zm-3.165-2.218q-.766,1.2-3.376,1.2H300.56V105.48h5.4q2.539,0,3.228,1.151t.688,5.388Q309.88,116.119,309.115,117.319Z" transform="translate(-242.48 -102.251)" fill="#fff"></path><rect id="Rectangle_134" data-name="Rectangle 134" width="3.636" height="19.159" transform="translate(73.745 0.169)" fill="#fff"></rect><path id="Path_76" data-name="Path 76" d="M346.11,106.94l.619,1.375q.869,1.966,1.277,2.751l5.475,10.513h6.16V102.42h-3.633v11.032l.027,2.471.042,1.235.042,1.235h-.127l-.729-1.572-.73-1.558q-.868-1.84-1.531-3.13l-4.981-9.713h-6.163v19.159h3.636V110.59l-.029-2.513-.043-1.249-.054-1.263h.139Z" transform="translate(-259.355 -102.251)" fill="#fff"></path><path id="Path_77" data-name="Path 77" d="M378.6,106.052q.85-.785,4.008-.786a8.574,8.574,0,0,1,3.629.456c.48.3.756,1.083.82,2.337h3.678q0-3.734-1.488-4.821t-6.6-1.088a15.351,15.351,0,0,0-5.53.7,4.614,4.614,0,0,0-2.428,2.723q-.644,1.656-.646,7.944,0,4.928,1.615,6.527t6.581,1.6q5.418,0,6.983-1.2t1.566-5.354l-.056-3.8H382.3v2.68h4.813l-.013.787q0,2.456-.807,3.115t-3.782.661q-3.063,0-3.9-.779t-.842-3.63l-.028-2.455.013-1.923Q377.75,106.837,378.6,106.052Z" transform="translate(-271.443 -102.15)" fill="#fff"></path></g></g></svg> 